<svg width="240" height="79" viewBox="0 0 240 79" fill="none" xmlns="http://www.w3.org/2000/svg">
<path d="M130.63 65.0932C127.899 62.7435 125.264 60.2349 122.724 57.5676C120.247 54.8368 117.929 52.0425 115.77 49.1847C113.674 46.3269 111.737 43.4373 109.959 40.516C108.244 37.5311 106.783 34.6098 105.577 31.752C103.417 34.1018 101.258 36.4833 99.099 38.8965C97.0033 41.2463 95.1298 43.6278 93.4786 46.0411C91.8274 48.3909 90.4938 50.7724 89.4777 53.1856C88.3981 55.5354 87.8582 57.8852 87.8582 60.2349C87.8582 63.0292 88.3345 65.4425 89.2872 67.4747C90.1763 69.4435 91.3829 71.0629 92.9071 72.333C94.4312 73.6032 96.1777 74.524 98.1464 75.0956C100.115 75.6672 102.147 75.9529 104.243 75.9529C108.435 75.9529 112.88 74.9686 117.58 72.9999C122.279 71.0311 126.629 68.3956 130.63 65.0932ZM118.818 8.60364C118.818 6.38089 118.31 4.79321 117.294 3.84061C116.341 2.8245 115.293 2.31644 114.15 2.31644C113.198 2.31644 112.181 2.63397 111.102 3.26905C110.086 3.90412 109.133 4.82497 108.244 6.0316C107.418 7.17473 106.72 8.57189 106.148 10.2231C105.577 11.8743 105.291 13.6842 105.291 15.6529C105.291 19.2728 105.958 23.115 107.291 27.1795C108.879 25.5283 110.372 23.9089 111.769 22.3212C113.166 20.7335 114.372 19.1776 115.389 17.6534C116.468 16.0657 117.294 14.5416 117.865 13.0809C118.5 11.5567 118.818 10.0643 118.818 8.60364ZM155.493 78.1439C155.493 78.3345 155.366 78.525 155.112 78.7155C154.858 78.906 154.477 79.0013 153.969 79.0013C150.159 77.7947 146.412 76.1117 142.728 73.9525C139.045 71.7297 135.457 69.1577 131.964 66.2364C129.551 68.0781 127.042 69.761 124.438 71.2852C121.835 72.8093 119.167 74.1112 116.436 75.1909C113.769 76.2705 111.07 77.0961 108.339 77.6676C105.672 78.2392 103.1 78.525 100.623 78.525C98.2099 78.525 95.9236 78.1757 93.7644 77.4771C91.6052 76.842 89.7317 75.8577 88.144 74.524C86.5563 73.1269 85.318 71.4122 84.4289 69.38C83.4762 67.3477 82.9999 64.9662 82.9999 62.2354C82.9999 59.3141 83.6668 56.4563 85.0004 53.6619C86.3341 50.8041 88.0488 48.0098 90.1445 45.279C92.2402 42.5482 94.5582 39.8809 97.0985 37.2771C99.7023 34.6733 102.243 32.133 104.719 29.6563C102.878 24.7027 101.957 20.2254 101.957 16.2245C101.957 13.8747 102.37 11.7155 103.195 9.74677C104.084 7.77805 105.196 6.09511 106.529 4.69795C107.863 3.3008 109.324 2.22118 110.911 1.45909C112.563 0.6335 114.118 0.220703 115.579 0.220703C117.294 0.220703 118.85 0.792267 120.247 1.9354C121.644 3.01501 122.343 4.82497 122.343 7.36525C122.343 8.95293 121.93 10.6041 121.104 12.3188C120.342 14.0335 119.294 15.8117 117.961 17.6534C116.69 19.4316 115.166 21.3051 113.388 23.2738C111.673 25.179 109.863 27.1477 107.958 29.1799C110.054 34.9591 113.166 40.8335 117.294 46.8032C121.485 52.7093 126.566 58.2345 132.536 63.3785C135.774 60.4572 138.378 57.2501 140.347 53.7572C142.316 50.2643 143.3 46.6127 143.3 42.8022C143.3 41.5321 143.109 40.2619 142.728 38.9918C142.411 37.6582 141.744 36.261 140.728 34.8003C140.728 34.6733 140.918 34.5463 141.299 34.4193C141.681 34.2288 142.03 34.1335 142.347 34.1335C143.236 34.1335 143.935 34.451 144.443 35.0861C145.015 35.6577 145.427 36.3563 145.681 37.1818C145.999 38.0074 146.19 38.8648 146.253 39.7539C146.38 40.5795 146.444 41.2463 146.444 41.7544C146.444 45.9458 145.269 50.0103 142.919 53.9477C140.633 57.8217 137.648 61.3781 133.964 64.6169C140.125 69.888 147.079 74.1747 154.827 77.4771C155.271 77.7311 155.493 77.9534 155.493 78.1439Z" fill="#FFA55C"/>
<path d="M18.224 44.1282C18.224 42.1442 18.096 40.4962 17.84 39.1842C17.616 37.8722 17.296 37.2162 16.88 37.2162C16.624 37.2162 16.384 37.4082 16.16 37.7922C15.936 38.1442 15.744 38.6562 15.584 39.3282C15.456 39.9682 15.344 40.7362 15.248 41.6322C15.184 42.4962 15.152 43.4402 15.152 44.4642C15.152 46.2882 15.28 48.2562 15.536 50.3682C15.792 52.4482 16.24 54.4642 16.88 56.4162C17.328 54.3682 17.664 52.2722 17.888 50.1282C18.112 47.9522 18.224 45.9522 18.224 44.1282ZM38.336 22.3362C38.336 22.4962 38.272 22.6242 38.144 22.7202C38.016 22.8162 37.856 22.9282 37.664 23.0562C36.704 23.6322 35.92 24.4322 35.312 25.4562C34.704 26.4802 34.208 27.6002 33.824 28.8162C33.472 30.0322 33.232 31.2802 33.104 32.5602C32.976 33.8082 32.912 34.9602 32.912 36.0162C32.912 36.7522 32.944 37.6642 33.008 38.7522C33.104 39.8082 33.2 40.9762 33.296 42.2562C33.424 43.5362 33.52 44.8962 33.584 46.3362C33.68 47.7442 33.728 49.1842 33.728 50.6562C33.728 52.7362 33.6 54.7522 33.344 56.7042C33.12 58.6562 32.656 60.4002 31.952 61.9362C31.28 63.4722 30.336 64.7042 29.12 65.6322C27.904 66.5602 26.32 67.0242 24.368 67.0242C23.472 67.0242 22.624 66.8482 21.824 66.4962C21.056 66.1762 20.336 65.7122 19.664 65.1042C19.024 64.4962 18.432 63.7922 17.888 62.9922C17.376 62.1922 16.912 61.3122 16.496 60.3522C16.08 61.4722 15.584 62.5122 15.008 63.4722C14.464 64.4322 13.856 65.2642 13.184 65.9682C12.512 66.6722 11.776 67.2162 10.976 67.6002C10.176 67.9842 9.328 68.1762 8.432 68.1762C7.056 68.1762 5.888 67.8242 4.928 67.1202C4 66.4162 3.232 65.4882 2.624 64.3362C2.016 63.2162 1.536 61.9362 1.184 60.4962C0.864 59.0242 0.624 57.5362 0.464 56.0322C0.304 54.4962 0.192 53.0082 0.128 51.5682C0.096 50.0962 0.064 48.8002 0.032 47.6802C-0.032 45.6642 0 43.7602 0.128 41.9682C0.288 40.1442 0.464 38.5122 0.656 37.0722C0.848 35.6002 1.04 34.3362 1.232 33.2802C1.424 32.2242 1.552 31.4402 1.616 30.9282C1.648 30.7362 1.84 30.6082 2.192 30.5442C2.576 30.4802 2.912 30.4482 3.2 30.4482C3.424 30.4482 3.616 30.4802 3.776 30.5442C3.936 30.5762 4.016 30.6722 4.016 30.8322C4.016 31.0242 3.936 31.3602 3.776 31.8402C3.616 32.2882 3.376 33.1522 3.056 34.4322C2.928 35.0082 2.784 35.8402 2.624 36.9282C2.496 37.9842 2.368 39.1842 2.24 40.5282C2.144 41.8722 2.064 43.3122 2 44.8482C1.936 46.3522 1.904 47.8242 1.904 49.2642C1.904 50.3842 1.952 51.6162 2.048 52.9602C2.144 54.2722 2.304 55.5842 2.528 56.8962C2.752 58.1762 3.056 59.4242 3.44 60.6402C3.824 61.8562 4.288 62.9282 4.832 63.8562C5.408 64.7842 6.08 65.5202 6.848 66.0642C7.616 66.6402 8.512 66.9282 9.536 66.9282C10.304 66.9282 11.008 66.7362 11.648 66.3522C12.288 65.9682 12.88 65.4242 13.424 64.7202C13.968 64.0482 14.448 63.2482 14.864 62.3202C15.312 61.3922 15.712 60.3842 16.064 59.2962C15.328 57.2802 14.784 55.1362 14.432 52.8642C14.08 50.5922 13.904 48.4962 13.904 46.5762C13.904 45.1682 13.952 43.7762 14.048 42.4002C14.176 41.0242 14.352 39.7922 14.576 38.7042C14.8 37.6162 15.088 36.7362 15.44 36.0642C15.792 35.3922 16.208 35.0562 16.688 35.0562C17.072 35.0562 17.408 35.2962 17.696 35.7762C18.016 36.2562 18.272 36.9122 18.464 37.7442C18.688 38.5762 18.848 39.5682 18.944 40.7202C19.072 41.8402 19.136 43.0562 19.136 44.3682C19.136 46.4802 18.992 48.7042 18.704 51.0402C18.416 53.3442 17.968 55.6002 17.36 57.8082C17.776 58.9282 18.256 59.9682 18.8 60.9282C19.344 61.8562 19.952 62.6722 20.624 63.3762C21.328 64.0802 22.096 64.6242 22.928 65.0082C23.792 65.4242 24.736 65.6322 25.76 65.6322C27.168 65.6322 28.32 65.2802 29.216 64.5762C30.112 63.9042 30.816 62.9762 31.328 61.7922C31.84 60.5762 32.192 59.1842 32.384 57.6162C32.576 56.0162 32.672 54.3042 32.672 52.4802C32.672 50.8482 32.608 49.1682 32.48 47.4402C32.384 45.7122 32.272 44.0002 32.144 42.3042C32.016 40.5762 31.888 38.9122 31.76 37.3122C31.664 35.6802 31.616 34.1762 31.616 32.8002C31.616 31.8082 31.76 30.6562 32.048 29.3442C32.368 28.0322 32.784 26.8002 33.296 25.6482C33.84 24.4642 34.448 23.4722 35.12 22.6722C35.824 21.8402 36.56 21.4242 37.328 21.4242C37.552 21.4242 37.776 21.5362 38 21.7602C38.224 21.9522 38.336 22.1442 38.336 22.3362Z" fill="#FFF9F4"/>
<path d="M53.3236 54.2082C53.3236 53.7282 53.2436 53.3442 53.0836 53.0562C52.9236 52.7362 52.6676 52.5762 52.3156 52.5762C51.7716 52.5762 51.3556 52.8482 51.0676 53.3922C50.7796 53.9042 50.6516 54.5602 50.6836 55.3602C50.7796 57.0562 51.0836 58.4802 51.5956 59.6322C52.1396 58.8962 52.5556 58.0642 52.8436 57.1362C53.1636 56.2082 53.3236 55.2322 53.3236 54.2082ZM66.2836 54.1602C66.0596 54.6402 65.8196 55.1362 65.5636 55.6482C65.3076 56.1282 65.0196 56.6082 64.6996 57.0882C63.0676 59.5202 61.4196 61.3282 59.7556 62.5122C58.0916 63.6962 56.5396 64.2882 55.0996 64.2882C53.2756 64.2882 51.8836 63.4242 50.9236 61.6962C49.8036 62.8162 48.5396 63.6642 47.1316 64.2402C45.7556 64.8162 44.3956 65.1042 43.0516 65.1042C42.2516 65.1042 41.4836 64.9922 40.7476 64.7682C40.0436 64.5442 39.4356 64.2082 38.9236 63.7602C38.3796 63.2802 37.9476 62.6882 37.6276 61.9842C37.3076 61.2482 37.1476 60.4002 37.1476 59.4402C37.1476 58.2882 37.4196 57.1202 37.9636 55.9362C38.4756 54.7202 39.1956 53.6322 40.1236 52.6722C41.0836 51.6802 42.2036 50.8642 43.4836 50.2242C44.7636 49.5842 46.1556 49.2642 47.6596 49.2642C48.8756 49.2642 49.8196 49.4402 50.4916 49.7922C51.1636 50.1122 51.4996 50.4162 51.4996 50.7042C51.4996 50.8322 51.4356 50.9282 51.3076 50.9922C51.1796 51.0562 51.0676 51.0882 50.9716 51.0882C50.9396 51.0562 50.9076 51.0402 50.8756 51.0402H50.8276C50.4436 50.6882 50.0116 50.4162 49.5316 50.2242C49.0516 50.0002 48.3476 49.8882 47.4196 49.8882C46.1716 49.8882 45.0356 50.1602 44.0116 50.7042C43.0196 51.2162 42.1716 51.9042 41.4676 52.7682C40.7636 53.6002 40.2196 54.5282 39.8356 55.5522C39.4516 56.5762 39.2596 57.5842 39.2596 58.5762C39.2596 60.4962 39.7076 61.8882 40.6036 62.7522C41.4996 63.6162 42.6196 64.0482 43.9636 64.0482C45.0516 64.0482 46.1876 63.7762 47.3716 63.2322C48.5556 62.6882 49.6116 61.9202 50.5396 60.9282C50.0276 59.7762 49.7716 58.2722 49.7716 56.4162C49.7716 55.2002 49.9956 54.1442 50.4436 53.2482C50.8916 52.3522 51.5316 51.9042 52.3636 51.9042C53.5156 51.9042 54.0916 52.5762 54.0916 53.9202C54.0916 55.2642 53.8996 56.4802 53.5156 57.5682C53.1316 58.6242 52.6196 59.5842 51.9796 60.4482C52.8756 62.1122 54.1236 62.9442 55.7236 62.9442C56.9396 62.9442 58.2356 62.4322 59.6116 61.4082C61.0196 60.3842 62.3956 58.8962 63.7396 56.9442C64.0596 56.4642 64.3476 55.9682 64.6036 55.4562C64.8596 54.9442 65.1156 54.4322 65.3716 53.9202L66.2836 54.1602Z" fill="#FFF9F4"/>
<path d="M72.9508 32.7042C72.9508 30.8802 72.6467 29.4242 72.0387 28.3362C71.4627 27.2162 70.4867 26.6562 69.1107 26.6562C68.6307 26.6562 68.1827 26.8162 67.7667 27.1362C67.3827 27.4242 67.0468 27.8242 66.7588 28.3362C66.4708 28.8482 66.2467 29.4402 66.0867 30.1122C65.9267 30.7842 65.8467 31.5042 65.8467 32.2722C65.8467 34.3842 65.8628 36.3042 65.8948 38.0322C65.9268 39.7602 65.9588 41.3922 65.9908 42.9282C66.0548 44.4642 66.1187 45.9522 66.1827 47.3922C66.2467 48.8322 66.3107 50.3042 66.3747 51.8082C67.3027 50.5602 68.1668 49.1362 68.9668 47.5362C69.7668 45.9042 70.4548 44.2402 71.0308 42.5442C71.6388 40.8162 72.1028 39.1042 72.4228 37.4082C72.7748 35.7122 72.9508 34.1442 72.9508 32.7042ZM90.3268 54.1602C90.1028 54.6402 89.8628 55.1362 89.6068 55.6482C89.3828 56.1602 89.0948 56.6402 88.7428 57.0882C86.9828 59.5842 84.9828 61.5522 82.7428 62.9922C80.5028 64.4002 78.2787 65.1042 76.0707 65.1042C74.6947 65.1042 73.3828 64.7842 72.1348 64.1442C70.8868 63.5362 69.7828 62.5442 68.8228 61.1682C68.6948 61.0082 68.6308 60.8642 68.6308 60.7362C68.6308 60.4482 68.8227 60.3042 69.2067 60.3042C69.2387 60.3042 69.3507 60.3362 69.5427 60.4002C69.7987 60.4002 70.0868 60.4962 70.4068 60.6882C70.7588 60.8482 71.2548 60.9282 71.8948 60.9282C72.8868 60.9282 73.8147 60.7522 74.6787 60.4002C75.5427 60.0482 76.2787 59.6002 76.8867 59.0562C77.5267 58.4802 78.0227 57.8402 78.3747 57.1362C78.7267 56.4002 78.9027 55.6482 78.9027 54.8802C78.9027 53.9202 78.6468 53.0882 78.1348 52.3842C77.6548 51.6802 76.8227 51.3282 75.6387 51.3282C74.4227 51.3282 73.3027 51.7602 72.2787 52.6242C71.2547 53.4562 70.3268 54.4802 69.4948 55.6962C68.6948 56.8802 68.0067 58.1442 67.4307 59.4882C66.8547 60.8002 66.4228 61.9522 66.1348 62.9442C65.9748 63.4882 65.8308 63.8242 65.7028 63.9522C65.5748 64.0802 65.4308 64.1442 65.2708 64.1442C64.9188 64.1442 64.7587 63.8082 64.7907 63.1362C64.7907 62.8482 64.8068 62.4962 64.8388 62.0802C64.8708 61.6642 64.9028 61.2162 64.9348 60.7362C64.9348 60.2562 64.9507 59.7762 64.9827 59.2962C65.0147 58.7842 65.0307 58.3202 65.0307 57.9042C65.0307 56.4642 64.9988 54.8162 64.9348 52.9602C64.8708 51.0722 64.7907 49.1362 64.6947 47.1522C64.5987 45.1362 64.5188 43.1362 64.4548 41.1522C64.3908 39.1682 64.3587 37.3442 64.3587 35.6802C64.3587 34.3682 64.4548 33.1042 64.6468 31.8882C64.8388 30.6402 65.1427 29.5522 65.5587 28.6242C65.9747 27.6642 66.5028 26.9122 67.1428 26.3682C67.7828 25.7922 68.5348 25.5042 69.3988 25.5042C70.2948 25.5042 71.0467 25.6642 71.6547 25.9842C72.2947 26.2722 72.8068 26.7042 73.1908 27.2802C73.5748 27.8242 73.8468 28.4962 74.0068 29.2962C74.1988 30.0642 74.2948 30.9122 74.2948 31.8402C74.2948 33.4402 74.0707 35.2002 73.6227 37.1202C73.1747 39.0082 72.5827 40.9122 71.8467 42.8322C71.1107 44.7522 70.2627 46.6082 69.3027 48.4002C68.3747 50.1602 67.4148 51.6962 66.4228 53.0082C66.4868 53.9682 66.5188 54.9602 66.5188 55.9842C66.5508 57.0082 66.5988 58.0962 66.6628 59.2482C67.4628 57.5202 68.3427 56.0322 69.3027 54.7842C69.7187 54.2402 70.1827 53.7122 70.6947 53.2002C71.2387 52.6562 71.7987 52.1762 72.3747 51.7602C72.9827 51.3442 73.6228 51.0082 74.2948 50.7522C74.9988 50.4962 75.7348 50.3682 76.5028 50.3682C77.7188 50.3682 78.7748 50.6722 79.6708 51.2802C80.5668 51.8882 81.0147 52.8642 81.0147 54.2082C81.0147 55.4882 80.6947 56.5762 80.0547 57.4722C79.4467 58.3682 78.6787 59.1202 77.7507 59.7282C76.8227 60.3042 75.8307 60.7362 74.7747 61.0242C73.7187 61.3122 72.7588 61.4882 71.8948 61.5522C71.8308 61.5522 71.7988 61.5682 71.7988 61.6002C71.7988 61.6642 71.8467 61.7602 71.9427 61.8882C72.5827 62.6242 73.3028 63.1522 74.1028 63.4722C74.9028 63.7922 75.7347 63.9522 76.5987 63.9522C77.6547 63.9522 78.7268 63.7602 79.8148 63.3762C80.9028 62.9602 81.9428 62.4322 82.9348 61.7922C83.9268 61.1202 84.8388 60.3682 85.6708 59.5362C86.5348 58.6722 87.2388 57.8082 87.7828 56.9442C88.1028 56.4642 88.3908 55.9682 88.6468 55.4562C88.9028 54.9442 89.1587 54.4322 89.4147 53.9202L90.3268 54.1602Z" fill="#FFF9F4"/>
<path d="M97.0936 51.1842C97.0936 50.3202 96.8696 49.6162 96.4216 49.0722C96.0056 48.4962 95.3176 48.2082 94.3576 48.2082C93.8456 48.2082 93.3816 48.3682 92.9656 48.6882C92.5496 49.0082 92.1976 49.4402 91.9096 49.9842C91.6216 50.4962 91.3976 51.1042 91.2376 51.8082C91.0776 52.5122 90.9976 53.2482 90.9976 54.0162C90.9976 55.2322 91.1256 56.3202 91.3816 57.2802C91.6696 58.2082 92.0696 59.0242 92.5816 59.7282C93.2536 59.1842 93.8616 58.5602 94.4056 57.8562C94.9496 57.1522 95.4136 56.4162 95.7976 55.6482C96.2136 54.8802 96.5336 54.1122 96.7576 53.3442C96.9816 52.5762 97.0936 51.8562 97.0936 51.1842ZM109.238 54.1602C109.014 54.6402 108.774 55.1362 108.518 55.6482C108.294 56.1282 108.006 56.6082 107.654 57.0882C106.086 59.3282 104.294 61.0242 102.278 62.1762C100.294 63.2962 98.3896 63.8562 96.5656 63.8562C95.5416 63.8562 94.5816 63.6802 93.6856 63.3282C92.8216 62.9762 92.0696 62.4482 91.4296 61.7442C90.7896 61.0402 90.2776 60.1602 89.8936 59.1042C89.5096 58.0482 89.3176 56.8002 89.3176 55.3602C89.3176 54.4002 89.4616 53.4402 89.7496 52.4802C90.0376 51.5202 90.4216 50.6562 90.9016 49.8882C91.4136 49.1202 91.9896 48.4962 92.6296 48.0162C93.3016 47.5362 94.0056 47.2962 94.7416 47.2962C95.9256 47.2962 96.7896 47.6482 97.3336 48.3522C97.8776 49.0242 98.1496 49.8882 98.1496 50.9442C98.1496 52.3842 97.7016 53.9522 96.8056 55.6482C95.9416 57.3122 94.6936 58.8642 93.0616 60.3042C94.2776 61.6802 95.8456 62.3682 97.7656 62.3682C99.2056 62.3682 100.71 61.9362 102.278 61.0722C103.846 60.1762 105.318 58.8002 106.694 56.9442C107.046 56.4962 107.334 56.0162 107.558 55.5042C107.814 54.9602 108.07 54.4322 108.326 53.9202L109.238 54.1602Z" fill="#FFF9F4"/>
<path d="M150.823 42.0642C149.639 42.0642 148.503 42.1922 147.415 42.4482C146.359 42.7042 145.415 43.0082 144.583 43.3602C143.783 43.7122 143.127 44.0802 142.615 44.4642C142.135 44.8482 141.895 45.1842 141.895 45.4722C141.895 45.8562 142.343 46.0482 143.239 46.0482C144.775 46.0482 146.231 45.6802 147.607 44.9442C149.015 44.2082 150.279 43.2482 151.399 42.0642H150.823ZM164.791 49.2642C164.791 50.8322 164.343 52.5282 163.447 54.3522C162.583 56.1762 161.383 57.9842 159.847 59.7762C158.311 61.5682 156.487 63.2962 154.375 64.9602C152.263 66.6242 149.991 68.0962 147.559 69.3762C145.127 70.6562 142.567 71.6642 139.879 72.4002C137.191 73.1682 134.503 73.5522 131.815 73.5522C131.367 73.5522 130.871 73.5362 130.327 73.5042C129.815 73.4722 129.335 73.3922 128.887 73.2642C128.439 73.1682 128.055 72.9922 127.735 72.7362C127.415 72.5122 127.255 72.1922 127.255 71.7762C127.255 71.2002 127.543 70.6402 128.119 70.0962C128.695 69.5842 129.431 69.1042 130.327 68.6562C131.223 68.2082 132.199 67.8082 133.255 67.4562C134.311 67.1042 135.319 66.8002 136.279 66.5442C137.271 66.2882 138.135 66.0802 138.871 65.9202C139.607 65.7922 140.103 65.7282 140.359 65.7282C140.551 65.7282 140.695 65.7762 140.791 65.8722C140.887 65.9682 140.935 66.0642 140.935 66.1602C140.935 66.3202 140.855 66.4002 140.695 66.4002H140.071C139.239 66.4002 138.183 66.5602 136.903 66.8802C135.623 67.2002 134.375 67.6002 133.159 68.0802C131.943 68.5602 130.903 69.0882 130.039 69.6642C129.175 70.2722 128.743 70.8322 128.743 71.3442C128.743 71.6962 128.855 71.9682 129.079 72.1602C129.335 72.3842 129.639 72.5602 129.991 72.6882C130.343 72.8162 130.711 72.8962 131.095 72.9282C131.479 72.9922 131.815 73.0242 132.103 73.0242C134.375 73.0242 136.695 72.6402 139.063 71.8722C141.463 71.1042 143.783 70.0802 146.023 68.8002C148.295 67.5522 150.423 66.0962 152.407 64.4322C154.423 62.8002 156.183 61.1042 157.687 59.3442C159.191 57.5522 160.375 55.7762 161.239 54.0162C162.103 52.2242 162.535 50.5602 162.535 49.0242C162.535 47.1362 161.751 45.5682 160.183 44.3202C158.647 43.0402 156.103 42.3042 152.551 42.1122C151.111 43.4562 149.527 44.5442 147.799 45.3762C146.103 46.2082 144.375 46.6242 142.615 46.6242C141.367 46.6242 140.743 46.3202 140.743 45.7122C140.743 45.3282 140.999 44.8962 141.511 44.4162C142.055 43.9042 142.791 43.4242 143.719 42.9762C144.679 42.5282 145.815 42.1602 147.127 41.8722C148.439 41.5522 149.879 41.3922 151.447 41.3922H152.023C153.079 40.1442 153.927 38.7842 154.567 37.3122C155.207 35.8082 155.527 34.3362 155.527 32.8962C155.527 31.9362 155.351 31.0242 154.999 30.1602C154.679 29.2642 154.135 28.4962 153.367 27.8562C152.631 27.2162 151.655 26.7042 150.439 26.3202C149.255 25.9362 147.815 25.7442 146.119 25.7442C144.967 25.7442 143.367 25.9042 141.319 26.2242C139.303 26.5442 137.111 27.0402 134.743 27.7122C132.407 28.3522 130.023 29.1682 127.591 30.1602C125.159 31.1522 122.951 32.3042 120.967 33.6162C118.983 34.9282 117.367 36.4162 116.119 38.0802C114.871 39.7442 114.247 41.5842 114.247 43.6002C114.247 43.8562 114.199 44.0802 114.103 44.2722C114.007 44.4322 113.911 44.5122 113.815 44.5122C113.687 44.5122 113.591 44.3842 113.527 44.1282C113.431 43.8402 113.383 43.3762 113.383 42.7362C113.671 40.6562 114.519 38.7682 115.927 37.0722C117.335 35.3762 119.079 33.8722 121.159 32.5602C123.207 31.2162 125.463 30.0642 127.927 29.1042C130.391 28.1442 132.823 27.3602 135.223 26.7522C137.655 26.1122 139.911 25.6482 141.991 25.3602C144.103 25.0402 145.831 24.8802 147.175 24.8802C149.127 24.8802 150.775 25.0722 152.119 25.4562C153.495 25.8082 154.615 26.3042 155.479 26.9442C156.343 27.5522 156.967 28.2882 157.351 29.1522C157.735 30.0162 157.927 30.9282 157.927 31.8882C157.927 33.4562 157.495 35.0882 156.631 36.7842C155.799 38.4482 154.663 40.0002 153.223 41.4402C155.271 41.5362 157.031 41.8082 158.503 42.2562C159.975 42.6722 161.175 43.2322 162.103 43.9362C163.031 44.6082 163.703 45.4082 164.119 46.3362C164.567 47.2322 164.791 48.2082 164.791 49.2642ZM139.351 61.8882C139.351 62.3362 139.319 62.6562 139.255 62.8482C139.191 63.0402 139.015 63.1362 138.727 63.1362C138.087 63.2002 137.767 62.5602 137.767 61.2162C137.735 56.8002 137.687 52.7682 137.623 49.1202C137.591 45.4722 137.543 42.3202 137.479 39.6642C137.447 36.9762 137.415 34.8482 137.383 33.2802C137.351 31.7122 137.335 30.8162 137.335 30.5922C137.335 30.3362 137.415 30.1602 137.575 30.0642C137.735 29.9682 137.927 29.8882 138.151 29.8242C138.407 29.8242 138.599 29.9042 138.727 30.0642C138.887 30.2242 138.967 30.4162 138.967 30.6402C138.967 33.2002 138.983 35.8402 139.015 38.5602C139.047 41.2482 139.079 43.9362 139.111 46.6242C139.175 49.3122 139.223 51.9522 139.255 54.5442C139.319 57.1362 139.351 59.5842 139.351 61.8882Z" fill="#FFF9F4"/>
<path d="M183.449 54.2082C183.449 53.7282 183.369 53.3442 183.209 53.0562C183.049 52.7362 182.793 52.5762 182.441 52.5762C181.897 52.5762 181.481 52.8482 181.193 53.3922C180.905 53.9042 180.777 54.5602 180.809 55.3602C180.905 57.0562 181.209 58.4802 181.721 59.6322C182.265 58.8962 182.681 58.0642 182.969 57.1362C183.289 56.2082 183.449 55.2322 183.449 54.2082ZM196.409 54.1602C196.185 54.6402 195.945 55.1362 195.689 55.6482C195.433 56.1282 195.145 56.6082 194.825 57.0882C193.193 59.5202 191.545 61.3282 189.881 62.5122C188.217 63.6962 186.665 64.2882 185.225 64.2882C183.401 64.2882 182.009 63.4242 181.049 61.6962C179.929 62.8162 178.665 63.6642 177.257 64.2402C175.881 64.8162 174.521 65.1042 173.177 65.1042C172.377 65.1042 171.609 64.9922 170.873 64.7682C170.169 64.5442 169.561 64.2082 169.049 63.7602C168.505 63.2802 168.073 62.6882 167.753 61.9842C167.433 61.2482 167.273 60.4002 167.273 59.4402C167.273 58.2882 167.545 57.1202 168.089 55.9362C168.601 54.7202 169.321 53.6322 170.249 52.6722C171.209 51.6802 172.329 50.8642 173.609 50.2242C174.889 49.5842 176.281 49.2642 177.785 49.2642C179.001 49.2642 179.945 49.4402 180.617 49.7922C181.289 50.1122 181.625 50.4162 181.625 50.7042C181.625 50.8322 181.561 50.9282 181.433 50.9922C181.305 51.0562 181.193 51.0882 181.097 51.0882C181.065 51.0562 181.033 51.0402 181.001 51.0402H180.953C180.569 50.6882 180.137 50.4162 179.657 50.2242C179.177 50.0002 178.473 49.8882 177.545 49.8882C176.297 49.8882 175.161 50.1602 174.137 50.7042C173.145 51.2162 172.297 51.9042 171.593 52.7682C170.889 53.6002 170.345 54.5282 169.961 55.5522C169.577 56.5762 169.385 57.5842 169.385 58.5762C169.385 60.4962 169.833 61.8882 170.729 62.7522C171.625 63.6162 172.745 64.0482 174.089 64.0482C175.177 64.0482 176.313 63.7762 177.497 63.2322C178.681 62.6882 179.737 61.9202 180.665 60.9282C180.153 59.7762 179.897 58.2722 179.897 56.4162C179.897 55.2002 180.121 54.1442 180.569 53.2482C181.017 52.3522 181.657 51.9042 182.489 51.9042C183.641 51.9042 184.217 52.5762 184.217 53.9202C184.217 55.2642 184.025 56.4802 183.641 57.5682C183.257 58.6242 182.745 59.5842 182.105 60.4482C183.001 62.1122 184.249 62.9442 185.849 62.9442C187.065 62.9442 188.361 62.4322 189.737 61.4082C191.145 60.3842 192.521 58.8962 193.865 56.9442C194.185 56.4642 194.473 55.9682 194.729 55.4562C194.985 54.9442 195.241 54.4322 195.497 53.9202L196.409 54.1602Z" fill="#FFF9F4"/>
<path d="M203.076 32.7042C203.076 30.8802 202.772 29.4242 202.164 28.3362C201.588 27.2162 200.612 26.6562 199.236 26.6562C198.756 26.6562 198.308 26.8162 197.892 27.1362C197.508 27.4242 197.172 27.8242 196.884 28.3362C196.596 28.8482 196.372 29.4402 196.212 30.1122C196.052 30.7842 195.972 31.5042 195.972 32.2722C195.972 34.3842 195.988 36.3042 196.02 38.0322C196.052 39.7602 196.084 41.3922 196.116 42.9282C196.18 44.4642 196.244 45.9522 196.308 47.3922C196.372 48.8322 196.436 50.3042 196.5 51.8082C197.428 50.5602 198.292 49.1362 199.092 47.5362C199.892 45.9042 200.58 44.2402 201.156 42.5442C201.764 40.8162 202.228 39.1042 202.548 37.4082C202.9 35.7122 203.076 34.1442 203.076 32.7042ZM220.452 54.1602C220.228 54.6402 219.988 55.1362 219.732 55.6482C219.508 56.1602 219.22 56.6402 218.868 57.0882C217.108 59.5842 215.108 61.5522 212.868 62.9922C210.628 64.4002 208.404 65.1042 206.196 65.1042C204.82 65.1042 203.508 64.7842 202.26 64.1442C201.012 63.5362 199.908 62.5442 198.948 61.1682C198.82 61.0082 198.756 60.8642 198.756 60.7362C198.756 60.4482 198.948 60.3042 199.332 60.3042C199.364 60.3042 199.476 60.3362 199.668 60.4002C199.924 60.4002 200.212 60.4962 200.532 60.6882C200.884 60.8482 201.38 60.9282 202.02 60.9282C203.012 60.9282 203.94 60.7522 204.804 60.4002C205.668 60.0482 206.404 59.6002 207.012 59.0562C207.652 58.4802 208.148 57.8402 208.5 57.1362C208.852 56.4002 209.028 55.6482 209.028 54.8802C209.028 53.9202 208.772 53.0882 208.26 52.3842C207.78 51.6802 206.948 51.3282 205.764 51.3282C204.548 51.3282 203.428 51.7602 202.404 52.6242C201.38 53.4562 200.452 54.4802 199.62 55.6962C198.82 56.8802 198.132 58.1442 197.556 59.4882C196.98 60.8002 196.548 61.9522 196.26 62.9442C196.1 63.4882 195.956 63.8242 195.828 63.9522C195.7 64.0802 195.556 64.1442 195.396 64.1442C195.044 64.1442 194.884 63.8082 194.916 63.1362C194.916 62.8482 194.932 62.4962 194.964 62.0802C194.996 61.6642 195.028 61.2162 195.06 60.7362C195.06 60.2562 195.076 59.7762 195.108 59.2962C195.14 58.7842 195.156 58.3202 195.156 57.9042C195.156 56.4642 195.124 54.8162 195.06 52.9602C194.996 51.0722 194.916 49.1362 194.82 47.1522C194.724 45.1362 194.644 43.1362 194.58 41.1522C194.516 39.1682 194.484 37.3442 194.484 35.6802C194.484 34.3682 194.58 33.1042 194.772 31.8882C194.964 30.6402 195.268 29.5522 195.684 28.6242C196.1 27.6642 196.628 26.9122 197.268 26.3682C197.908 25.7922 198.66 25.5042 199.524 25.5042C200.42 25.5042 201.172 25.6642 201.78 25.9842C202.42 26.2722 202.932 26.7042 203.316 27.2802C203.7 27.8242 203.972 28.4962 204.132 29.2962C204.324 30.0642 204.42 30.9122 204.42 31.8402C204.42 33.4402 204.196 35.2002 203.748 37.1202C203.3 39.0082 202.708 40.9122 201.972 42.8322C201.236 44.7522 200.388 46.6082 199.428 48.4002C198.5 50.1602 197.54 51.6962 196.548 53.0082C196.612 53.9682 196.644 54.9602 196.644 55.9842C196.676 57.0082 196.724 58.0962 196.788 59.2482C197.588 57.5202 198.468 56.0322 199.428 54.7842C199.844 54.2402 200.308 53.7122 200.82 53.2002C201.364 52.6562 201.924 52.1762 202.5 51.7602C203.108 51.3442 203.748 51.0082 204.42 50.7522C205.124 50.4962 205.86 50.3682 206.628 50.3682C207.844 50.3682 208.9 50.6722 209.796 51.2802C210.692 51.8882 211.14 52.8642 211.14 54.2082C211.14 55.4882 210.82 56.5762 210.18 57.4722C209.572 58.3682 208.804 59.1202 207.876 59.7282C206.948 60.3042 205.956 60.7362 204.9 61.0242C203.844 61.3122 202.884 61.4882 202.02 61.5522C201.956 61.5522 201.924 61.5682 201.924 61.6002C201.924 61.6642 201.972 61.7602 202.068 61.8882C202.708 62.6242 203.428 63.1522 204.228 63.4722C205.028 63.7922 205.86 63.9522 206.724 63.9522C207.78 63.9522 208.852 63.7602 209.94 63.3762C211.028 62.9602 212.068 62.4322 213.06 61.7922C214.052 61.1202 214.964 60.3682 215.796 59.5362C216.66 58.6722 217.364 57.8082 217.908 56.9442C218.228 56.4642 218.516 55.9682 218.772 55.4562C219.028 54.9442 219.284 54.4322 219.54 53.9202L220.452 54.1602Z" fill="#FFF9F4"/>
<path d="M227.219 51.1842C227.219 50.3202 226.995 49.6162 226.547 49.0722C226.131 48.4962 225.443 48.2082 224.483 48.2082C223.971 48.2082 223.507 48.3682 223.091 48.6882C222.675 49.0082 222.323 49.4402 222.035 49.9842C221.747 50.4962 221.523 51.1042 221.363 51.8082C221.203 52.5122 221.123 53.2482 221.123 54.0162C221.123 55.2322 221.251 56.3202 221.507 57.2802C221.795 58.2082 222.195 59.0242 222.707 59.7282C223.379 59.1842 223.987 58.5602 224.531 57.8562C225.075 57.1522 225.539 56.4162 225.923 55.6482C226.339 54.8802 226.659 54.1122 226.883 53.3442C227.107 52.5762 227.219 51.8562 227.219 51.1842ZM239.363 54.1602C239.139 54.6402 238.899 55.1362 238.643 55.6482C238.419 56.1282 238.131 56.6082 237.779 57.0882C236.211 59.3282 234.419 61.0242 232.403 62.1762C230.419 63.2962 228.515 63.8562 226.691 63.8562C225.667 63.8562 224.707 63.6802 223.811 63.3282C222.947 62.9762 222.195 62.4482 221.555 61.7442C220.915 61.0402 220.403 60.1602 220.019 59.1042C219.635 58.0482 219.443 56.8002 219.443 55.3602C219.443 54.4002 219.587 53.4402 219.875 52.4802C220.163 51.5202 220.547 50.6562 221.027 49.8882C221.539 49.1202 222.115 48.4962 222.755 48.0162C223.427 47.5362 224.131 47.2962 224.867 47.2962C226.051 47.2962 226.915 47.6482 227.459 48.3522C228.003 49.0242 228.275 49.8882 228.275 50.9442C228.275 52.3842 227.827 53.9522 226.931 55.6482C226.067 57.3122 224.819 58.8642 223.187 60.3042C224.403 61.6802 225.971 62.3682 227.891 62.3682C229.331 62.3682 230.835 61.9362 232.403 61.0722C233.971 60.1762 235.443 58.8002 236.819 56.9442C237.171 56.4962 237.459 56.0162 237.683 55.5042C237.939 54.9602 238.195 54.4322 238.451 53.9202L239.363 54.1602Z" fill="#FFF9F4"/>
</svg>
